<?xml version="1.0" encoding="UTF-8"?><svg id="Layer_2" xmlns="http://www.w3.org/2000/svg" viewBox="0 0 176.4 28.6"><defs><style>.cls-1{fill:#3cbfb9;}.cls-1,.cls-2{stroke-width:0px;}.cls-2{fill:#1e1e1e;}</style></defs><g id="Layer_1-2"><path class="cls-1" d="m93.13,4.36c-3.93,0-6.78,1.45-7.3,5.84h3.6c.43-1.88,1.44-3.1,3.7-3.09,2.1.01,3.71.93,3.71,2.61,0,3.92-11.59.21-11.59,7.63,0,3.4,2.79,4.88,5.85,4.88,2.48,0,4.65-.61,5.81-2.29v1.94h3.37v-12.04c0-3.99-3.44-5.5-7.15-5.5Zm3.78,10.23c0,2.99-2.48,4.76-5.12,4.76-1.75,0-3.03-.72-3.03-2.2,0-2.89,5.23-2.17,8.15-3.58v1.01Z"/><path class="cls-2" d="m114.57.95v7.19c-1.37-2.47-3.8-3.55-6.65-3.55-2.23,0-4.33.83-5.7,1.85l.57,1.55c1.35-.81,2.96-1.66,5.18-1.66,3.64,0,6.61,3.09,6.61,6.98,0,4.23-3.22,7.13-6.61,7.13-2.45,0-4.17-.97-5.18-1.46v1.87c1.25.8,3.18,1.4,5.16,1.4,2.85,0,5.26-1.29,6.63-3.77v3.42h2.06V.04l-2.06.91Z"/><path class="cls-1" d="m7.87,4.36c-3.93,0-6.78,1.45-7.3,5.84h3.6c.43-1.88,1.44-3.1,3.7-3.09,2.1.01,3.71.93,3.71,2.61,0,3.92-11.59.21-11.59,7.63,0,3.4,2.79,4.88,5.85,4.88,2.48,0,4.65-.61,5.81-2.29v1.94h3.37v-12.04c0-3.99-3.44-5.5-7.15-5.5Zm3.78,10.23c0,2.99-2.48,4.76-5.12,4.76-1.75,0-3.03-.72-3.03-2.2,0-2.89,5.23-2.17,8.15-3.58v1.01Z"/><polygon class="cls-2" points="119.55 21.9 119.55 5.55 121.61 4.7 121.61 21.9 119.55 21.9"/><polygon class="cls-2" points="144.08 21.9 144.08 5.55 146.14 4.7 146.14 21.9 144.08 21.9"/><path class="cls-2" d="m174.34,21.9V1.02l2.06-.97v21.85h-2.06Z"/><path class="cls-1" d="m46.07,21.9h-4.81l-5.85-17.19h3.58l4.68,14.44,4.68-14.44h3.58l-5.85,17.19Z"/><path class="cls-1" d="m64.25,16.87c-.73,1.33-2.05,2.34-3.98,2.34-2.89,0-4.81-1.75-5.23-4.74h13.48c.03-.38.07-.76.07-1.17,0-5.26-3.58-8.94-8.46-8.94s-8.46,3.68-8.46,8.94,3.58,8.94,8.46,8.94c3.82,0,6.73-2.06,7.89-5.37h-3.77Zm-4.12-9.48c2.75,0,4.64,1.72,5.05,4.61h-10.11c.41-2.89,2.27-4.61,5.05-4.61Z"/><path class="cls-1" d="m73.33,9.28c0-1.38,1.24-2.17,3.1-2.17,1.99,0,3.47,1.43,3.47,3.08h3.58c0-3.16-3.03-5.83-7.05-5.83-3.71,0-6.57,1.93-6.57,5.06,0,6.91,10.42,3.61,10.42,7.77,0,1.55-1.24,2.34-3.34,2.34-1.93,0-3.44-1.05-3.78-2.67h-3.61c.39,3.3,3.44,5.38,7.39,5.38s6.88-1.96,6.88-5.19c0-7.01-10.49-3.95-10.49-7.77Z"/><path class="cls-2" d="m164.49,4.36c-3.54,0-6.87,1.56-7.07,5.6h2.12c.32-2.72,2.17-3.92,4.95-3.92s4.81,1.2,4.81,3.61c0,4.88-12.41.31-12.41,7.84,0,3.23,2.72,4.74,6.02,4.74,2.65,0,5.23-.95,6.43-3.63v3.29h2.03v-12.17c0-3.89-3.3-5.37-6.88-5.37Zm4.85,10.23c0,3.71-2.99,5.9-6.09,5.9-2.51,0-4.26-1-4.26-3.09,0-4.4,7.36-2.58,10.35-4.71v1.91Z"/><path class="cls-2" d="m155.97,20.25c-.35.06-.75.1-1.22.1-2.44,0-3.64-1.34-3.64-4.33V6.53h5.02l.67-1.82h-5.69V.04l-2.06.97v15.11c0,4.74,2.27,6.12,5.4,6.12.5,0,1.04-.06,1.53-.14v-1.84Z"/><path class="cls-2" d="m139.06,5.55v2.8c-1.38-2.48-3.78-3.99-6.64-3.99-4.68,0-8.22,3.68-8.22,8.94s3.54,8.94,8.22,8.94c2.85,0,5.26-1.51,6.64-3.99v2.04c0,3.89-2.27,6.38-6.12,6.38-2.87,0-4.97-1.28-5.81-3.71h-2.15c.95,3.57,4.01,5.63,7.96,5.63,4.61,0,8.18-3.11,8.18-8.31V4.7l-2.06.84Zm-6.62,14.8c-3.64,0-6.4-2.82-6.4-7.05s2.75-7.05,6.4-7.05,6.4,2.82,6.4,7.05-2.75,7.05-6.4,7.05Z"/><path class="cls-1" d="m30.72,19.27c-1.34,1.82-3.34,2.92-5.64,2.92-4.71,0-8.25-3.68-8.25-8.94s3.54-8.94,8.25-8.94c2.3,0,4.3,1.1,5.64,2.92V.97l3.44-.97v21.85h-3.44v-2.58Zm-10.9-6.02c0,3.47,2.28,5.78,5.34,5.78s5.56-2.3,5.56-5.78-2.51-5.78-5.56-5.78-5.34,2.3-5.34,5.78Z"/></g></svg>